<svg width="1440" height="1600" xmlns="http://www.w3.org/2000/svg">
  <!-- Cabeçalho -->
  <rect x="0" y="0" width="1440" height="80" fill="#ffffff" stroke="#d3d3d3"/>
  <text x="60" y="50" font-family="Arial" font-size="24" fill="#000000">Logo</text>
  <text x="200" y="50" font-family="Arial" font-size="18" fill="#000000">Home</text>
  <text x="300" y="50" font-family="Arial" font-size="18" fill="#000000">Sobre</text>
  <text x="400" y="50" font-family="Arial" font-size="18" fill="#000000">Planos</text>
  <rect x="1240" y="20" width="120" height="40" fill="#ff6b6b"/>
  <text x="1260" y="50" font-family="Arial" font-size="18" fill="#ffffff">Logout</text>

  <!-- Fórum -->
  <text x="60" y="100" font-family="Arial" font-size="36" fill="#000000">Fórum</text>
  <rect x="60" y="140" width="400" height="40" fill="#d3d3d3"/>
  <text x="70" y="170" font-family="Arial" font-size="18" fill="#000000">Buscar Tópicos</text>
  <rect x="480" y="140" width="200" height="40" fill="#ff6b6b"/>
  <text x="490" y="170" font-family="Arial" font-size="18" fill="#ffffff">Criar Novo Tópico</text>

  <!-- Tópicos Recentes -->
  <text x="60" y="220" font-family="Arial" font-size="36" fill="#000000">Tópicos Recentes</text>
  <rect x="60" y="260" width="1320" height="50" fill="#c0c0c0"/>
  <text x="80" y="290" font-family="Arial" font-size="24" fill="#000000">Título do Tópico 1</text>
  <text x="80" y="320" font-family="Arial" font-size="18" fill="#000000">Descrição breve do Tópico 1.</text>

  <rect x="60" y="340" width="1320" height="50" fill="#c0c0c0"/>
  <text x="80" y="370" font-family="Arial" font-size="24" fill="#000000">Título do Tópico 2</text>
  <text x="80" y="400" font-family="Arial" font-size="18" fill="#000000">Descrição breve do Tópico 2.</text>

  <rect x="60" y="420" width="1320" height="50" fill="#c0c0c0"/>
  <text x="80" y="450" font-family="Arial" font-size="24" fill="#000000">Título do Tópico 3</text>
  <text x="80" y="480" font-family="Arial" font-size="18" fill="#000000">Descrição breve do Tópico 3.</text>

  <!-- Grupos de Interesse -->
  <text x="60" y="540" font-family="Arial" font-size="36" fill="#000000">Grupos de Interesse</text>
  <rect x="60" y="580" width="360" height="50" fill="#c0c0c0"/>
  <text x="80" y="610" font-family="Arial" font-size="24" fill="#000000">Grupo 1</text>
  
  <rect x="440" y="580" width="360" height="50" fill="#c0c0c0"/>
  <text x="460" y="610" font-family="Arial" font-size="24" fill="#000000">Grupo 2</text>
  
  <rect x="820" y="580" width="360" height="50" fill="#c0c0c0"/>
  <text x="840" y="610" font-family="Arial" font-size="24" fill="#000000">Grupo 3</text>

  <!-- Rodapé -->
  <rect x="0" y="1150" width="1440" height="100" fill="#ffffff" stroke="#d3d3d3"/>
  <text x="60" y="1200" font-family="Arial" font-size="18" fill="#000000">Links úteis | Contato | Redes Sociais | Termos de Uso</text>
</svg>