<svg width="1440" height="1600" xmlns="http://www.w3.org/2000/svg">
  <!-- Cabeçalho -->
  <rect x="0" y="0" width="1440" height="80" fill="#ffffff" stroke="#d3d3d3"/>
  <text x="60" y="50" font-family="Arial" font-size="24" fill="#000000">Logo</text>
  <text x="200" y="50" font-family="Arial" font-size="18" fill="#000000">Home</text>
  <text x="300" y="50" font-family="Arial" font-size="18" fill="#000000">Sobre</text>
  <text x="400" y="50" font-family="Arial" font-size="18" fill="#000000">Planos</text>
  <rect x="1240" y="20" width="120" height="40" fill="#ff6b6b"/>
  <text x="1260" y="50" font-family="Arial" font-size="18" fill="#ffffff">Login</text>

  <!-- Banner de Boas-vindas -->
  <rect x="0" y="100" width="1440" height="400" fill="#d3d3d3"/>
  <text x="60" y="300" font-family="Arial" font-size="48" fill="#000000">Bem-vindo ao Nosso Clube de Medicina Integrativa</text>
  <text x="60" y="350" font-family="Arial" font-size="24" fill="#000000">Descubra uma nova abordagem para a sua saúde.</text>

  <!-- Destaques do Mês -->
  <text x="60" y="540" font-family="Arial" font-size="36" fill="#000000">Destaques do Mês</text>
  <rect x="60" y="600" width="360" height="200" fill="#c0c0c0"/>
  <rect x="440" y="600" width="360" height="200" fill="#c0c0c0"/>
  <rect x="820" y="600" width="360" height="200" fill="#c0c0c0"/>
  <text x="80" y="650" font-family="Arial" font-size="24" fill="#000000">Título 1</text>
  <text x="80" y="680" font-family="Arial" font-size="18" fill="#000000">Descrição breve do destaque 1.</text>
  <rect x="280" y="750" width="120" height="40" fill="#ff6b6b"/>
  <text x="300" y="780" font-family="Arial" font-size="18" fill="#ffffff">Saiba Mais</text>

  <!-- Depoimentos -->
  <text x="60" y="850" font-family="Arial" font-size="36" fill="#000000">Depoimentos</text>
  <rect x="60" y="900" width="360" height="200" fill="#c0c0c0"/>
  <rect x="440" y="900" width="360" height="200" fill="#c0c0c0"/>
  <rect x="820" y="900" width="360" height="200" fill="#c0c0c0"/>
  <text x="80" y="950" font-family="Arial" font-size="24" fill="#000000">Usuário 1</text>
  <text x="80" y="980" font-family="Arial" font-size="18" fill="#000000">Depoimento do usuário 1.</text>

  <!-- Rodapé -->
  <rect x="0" y="1150" width="1440" height="100" fill="#ffffff" stroke="#d3d3d3"/>
  <text x="60" y="1200" font-family="Arial" font-size="18" fill="#000000">Links úteis | Contato | Redes Sociais | Termos de Uso</text>
</svg>