<svg width="1440" height="1600" xmlns="http://www.w3.org/2000/svg">
  <!-- Cabeçalho -->
  <rect x="0" y="0" width="1440" height="80" fill="#ffffff" stroke="#d3d3d3"/>
  <text x="60" y="50" font-family="Arial" font-size="24" fill="#000000">Logo</text>
  <text x="200" y="50" font-family="Arial" font-size="18" fill="#000000">Home</text>
  <text x="300" y="50" font-family="Arial" font-size="18" fill="#000000">Sobre</text>
  <text x="400" y="50" font-family="Arial" font-size="18" fill="#000000">Planos</text>
  <rect x="1240" y="20" width="120" height="40" fill="#ff6b6b"/>
  <text x="1260" y="50" font-family="Arial" font-size="18" fill="#ffffff">Logout</text>

  <!-- Loja Online -->
  <text x="60" y="100" font-family="Arial" font-size="36" fill="#000000">Loja Online</text>
  <rect x="60" y="140" width="400" height="40" fill="#d3d3d3"/>
  <text x="70" y="170" font-family="Arial" font-size="18" fill="#000000">Buscar Produtos</text>
  <rect x="480" y="140" width="200" height="40" fill="#d3d3d3"/>
  <text x="490" y="170" font-family="Arial" font-size="18" fill="#000000">Filtrar por Categoria</text>

  <!-- Produtos em Destaque -->
  <text x="60" y="220" font-family="Arial" font-size="36" fill="#000000">Produtos em Destaque</text>
  <rect x="60" y="260" width="360" height="200" fill="#c0c0c0"/>
  <rect x="440" y="260" width="360" height="200" fill="#c0c0c0"/>
  <rect x="820" y="260" width="360" height="200" fill="#c0c0c0"/>
  <text x="80" y="310" font-family="Arial" font-size="24" fill="#000000">Produto 1</text>
  <text x="80" y="340" font-family="Arial" font-size="18" fill="#000000">Descrição breve do Produto 1.</text>
  <rect x="300" y="410" width="120" height="40" fill="#ff6b6b"/>
  <text x="320" y="440" font-family="Arial" font-size="18" fill="#ffffff">Comprar</text>

  <text x="460" y="310" font-family="Arial" font-size="24" fill="#000000">Produto 2</text>
  <text x="460" y="340" font-family="Arial" font-size="18" fill="#000000">Descrição breve do Produto 2.</text>
  <rect x="680" y="410" width="120" height="40" fill="#ff6b6b"/>
  <text x="700" y="440" font-family="Arial" font-size="18" fill="#ffffff">Comprar</text>

  <text x="840" y="310" font-family="Arial" font-size="24" fill="#000000">Produto 3</text>
  <text x="840" y="340" font-family="Arial" font-size="18" fill="#000000">Descrição breve do Produto 3.</text>
  <rect x="1060" y="410" width="120" height="40" fill="#ff6b6b"/>
  <text x="1080" y="440" font-family="Arial" font-size="18" fill="#ffffff">Comprar</text>

  <!-- Carrinho -->
  <text x="60" y="500" font-family="Arial" font-size="36" fill="#000000">Carrinho</text>
  <rect x="60" y="540" width="1320" height="30" fill="#c0c0c0"/>
  <text x="70" y="560" font-family="Arial" font-size="18" fill="#000000">Produto 1</text>

  <rect x="60" y="580" width="1320" height="30" fill="#c0c0c0"/>
  <text x="70" y="600" font-family="Arial" font-size="18" fill="#000000">Produto 2</text>

  <rect x="60" y="620" width="1320" height="30" fill="#c0c0c0"/>
  <text x="70" y="640" font-family="Arial" font-size="18" fill="#000000">Produto 3</text>

  <rect x="60" y="660" width="1320" height="30" fill="#c0c0c0"/>
  <text x="70" y="680" font-family="Arial" font-size="18" fill="#000000">Total: [Valor]</text>

  <rect x="60" y="700" width="200" height="40" fill="#ff6b6b"/>
  <text x="80" y="730" font-family="Arial" font-size="18" fill="#ffffff">Finalizar Compra</text>

  <!-- Rodapé -->
  <rect x="0" y="1150" width="1440" height="100" fill="#ffffff" stroke="#d3d3d3"/>
  <text x="60" y="1200" font-family="Arial" font-size="18" fill="#000000">Links úteis | Contato | Redes Sociais | Termos de Uso</text>
</svg>