<svg width="800" height="1200" xmlns="http://www.w3.org/2000/svg">
  <!-- Header -->
  <rect x="0" y="0" width="800" height="50" fill="#e0e0e0"/>
  <text x="20" y="30" font-family="Arial" font-size="16" fill="#000000">[Logo] [Home] [Sobre] [Planos] [Logout]</text>

  <!-- Fórum -->
  <text x="20" y="80" font-family="Arial" font-size="20" fill="#000000">Fórum</text>
  <rect x="20" y="110" width="200" height="30" fill="#c0c0c0"/>
  <text x="30" y="130" font-family="Arial" font-size="14" fill="#000000">[Buscar Tópicos]</text>
  <rect x="240" y="110" width="200" height="30" fill="#c0c0c0"/>
  <text x="250" y="130" font-family="Arial" font-size="14" fill="#000000">[Criar Novo Tópico]</text>

  <!-- Tópicos Recentes -->
  <text x="20" y="180" font-family="Arial" font-size="20" fill="#000000">Tópicos Recentes</text>
  <rect x="20" y="210" width="220" height="50" fill="#c0c0c0"/>
  <rect x="260" y="210" width="220" height="50" fill="#c0c0c0"/>
  <rect x="500" y="210" width="220" height="50" fill="#c0c0c0"/>
  <text x="40" y="240" font-family="Arial" font-size="14" fill="#000000">[Tópico 1]</text>
  <text x="280" y="240" font-family="Arial" font-size="14" fill="#000000">[Tópico 2]</text>
  <text x="520" y="240" font-family="Arial" font-size="14" fill="#000000">[Tópico 3]</text>

  <!-- Grupos de Interesse -->
  <text x="20" y="300" font-family="Arial" font-size="20" fill="#000000">Grupos de Interesse</text>
  <rect x="20" y="330" width="220" height="50" fill="#c0c0c0"/>
  <rect x="260" y="330" width="220" height="50" fill="#c0c0c0"/>
  <rect x="500" y="330" width="220" height="50" fill="#c0c0c0"/>
  <text x="40" y="360" font-family="Arial" font-size="14" fill="#000000">[Grupo 1]</text>
  <text x="280" y="360" font-family="Arial" font-size="14" fill="#000000">[Grupo 2]</text>
  <text x="520" y="360" font-family="Arial" font-size="14" fill="#000000">[Grupo 3]</text>

  <!-- Footer -->
  <rect x="0" y="400" width="800" height="50" fill="#e0e0e0"/>
  <text x="20" y="430" font-family="Arial" font-size="16" fill="#000000">[Links] [Contato] [Redes Sociais] [Termos de Uso]</text>
</svg>